<svg 
    xmlns="http://www.w3.org/2000/svg" 
    viewBox="0 0 32 31.002" 
    width="25" 
    height="25" 
    style="fill: white;">
  <path d="M29.998 17h-6A2.001 2.001 0 0 0 22 19.001V23H10v-3.999A2.003 2.003 0 0 0 7.998 17h-6A2.001 2.001 0 0 0 0 19.001v6c0 .614.449 6.001 16 6.001s16-5.387 16-6.001v-6A2.003 2.003 0 0 0 29.998 17zM16 29.002c-13.458 0-13.997-4.001-14-4.001L1.998 19 8 19.001V24a1 1 0 0 0 1 1h14a1 1 0 0 0 1-1l-.002-5 6.002.001.001 5.957c-.004.04-.537 4.044-14.001 4.044z"/>
  <path d="M8 14h6v4a1.002 1.002 0 0 0 1.707.707L20.414 14H24c1.103 0 2-.897 2-2V2c0-1.103-.897-2-2-2H8C6.897 0 6 .897 6 2v10c0 1.103.897 2 2 2zM8 2h16v10h-4a.997.997 0 0 0-.707.293L16 15.586V13a1 1 0 0 0-1-1H8V2z"/>
  <path d="M11 6h2v2h-2zM15 6h2v2h-2zM19 6h2v2h-2z"/>
</svg>